<svg width="24" height="24" viewBox="0 0 24 24" fill="none" xmlns="http://www.w3.org/2000/svg">
  <path d="M14 19C17.771 19 21 15.971 21 12.2C21 8.429 17.771 5.4 14 5.4C10.229 5.4 7 8.429 7 12.2C7 13.458 7.346 14.638 7.949 15.65C8.01458 15.7525 8.04224 15.8766 8.02523 16C7.93063 16.8675 7.68334 17.7015 7.3 18.46C7.15002 18.7625 7.31583 19.1321 7.65 19.2C9.87583 19.7328 11.8333 19.1 13.15 17.8C13.4333 17.9316 13.7333 18 14 18V19Z" stroke="currentColor" stroke-width="2" stroke-linejoin="round"/>
  <path d="M10.5 13C10.5 13.2761 10.2761 13.5 10 13.5C9.72386 13.5 9.5 13.2761 9.5 13C9.5 12.7239 9.72386 12.5 10 12.5C10.2761 12.5 10.5 12.7239 10.5 13Z" fill="currentColor" stroke="currentColor"/>
  <path d="M14.5 13C14.5 13.2761 14.2761 13.5 14 13.5C13.7239 13.5 13.5 13.2761 13.5 13C13.5 12.7239 13.7239 12.5 14 12.5C14.2761 12.5 14.5 12.7239 14.5 13Z" fill="currentColor" stroke="currentColor"/>
  <path d="M18.5 13C18.5 13.2761 18.2761 13.5 18 13.5C17.7239 13.5 17.5 13.2761 17.5 13C17.5 12.7239 17.7239 12.5 18 12.5C18.2761 12.5 18.5 12.7239 18.5 13Z" fill="currentColor" stroke="currentColor"/>
  <path d="M4 14H3C2.44772 14 2 13.5523 2 13V5C2 4.44772 2.44772 4 3 4H13C13.5523 4 14 4.44772 14 5V6" stroke="currentColor" stroke-width="2" stroke-linecap="round"/>
</svg>
