<svg xmlns="http://www.w3.org/2000/svg" version="1.0" width="653.000000pt" height="616.000000pt" viewBox="0 0 653.000000 616.000000" preserveAspectRatio="xMidYMid meet">
<metadata fill="#f04771">
Created by potrace 1.16, written by Peter Selinger 2001-2019
</metadata>
<g transform="translate(0.000000,616.000000) scale(0.100000,-0.100000)" fill="#f04771" stroke="none">
<path d="M3070 5960 c-8 -5 -45 -10 -82 -10 -37 0 -69 -4 -72 -9 -3 -4 -27 -11 -53 -14 -27 -4 -77 -14 -113 -23 -36 -9 -83 -18 -105 -21 -22 -3 -44 -9 -49 -14 -6 -5 -20 -9 -33 -9 -13 0 -31 -4 -41 -9 -20 -11 -87 -33 -152 -51 -25 -6 -53 -16 -62 -21 -10 -5 -26 -9 -36 -9 -10 0 -22 -4 -27 -9 -6 -4 -35 -16 -65 -27 -30 -10 -59 -22 -65 -26 -5 -4 -16 -8 -25 -8 -9 0 -40 -11 -68 -25 -29 -14 -56 -25 -62 -25 -6 0 -18 -4 -28 -9 -9 -5 -42 -20 -72 -34 -30 -14 -75 -35 -99 -46 -25 -12 -51 -21 -58 -21 -7 0 -13 -4 -13 -10 0 -5 -7 -10 -15 -10 -8 0 -31 -10 -52 -21 -21 -12 -72 -39 -113 -61 -41 -22 -79 -44 -84 -49 -6 -5 -18 -9 -28 -9 -10 0 -18 -4 -18 -10 0 -5 -4 -10 -10 -10 -5 0 -41 -20 -80 -45 -39 -25 -75 -45 -80 -45 -6 0 -10 -4 -10 -8 0 -5 -18 -18 -40 -31 -50 -28 -162 -113 -242 -183 -68 -59 -128 -144 -128 -181 0 -12 -4 -27 -9 -32 -5 -6 -12 -46 -15 -90 -3 -44 -10 -129 -15 -190 -32 -344 -41 -770 -21 -980 27 -272 42 -372 85 -545 9 -36 19 -77 22 -93 3 -15 9 -30 14 -33 5 -3 9 -18 9 -34 0 -16 5 -32 10 -35 6 -3 10 -15 10 -25 0 -11 7 -36 16 -57 9 -21 21 -48 25 -60 5 -13 13 -33 18 -45 9 -26 73 -165 100 -218 21 -42 60 -112 90 -160 12 -19 24 -43 27 -52 4 -10 9 -18 13 -18 3 0 12 -13 19 -28 6 -16 20 -37 30 -48 9 -10 33 -43 52 -73 18 -29 48 -70 64 -91 17 -21 49 -61 71 -90 22 -29 45 -57 50 -64 50 -56 136 -156 151 -175 21 -27 530 -535 621 -621 63 -59 251 -232 314 -290 21 -19 81 -74 132 -122 52 -48 109 -100 129 -115 19 -16 67 -57 106 -92 39 -35 82 -71 94 -80 13 -8 32 -24 43 -34 11 -11 36 -31 55 -45 19 -14 47 -37 62 -50 l26 -24 39 28 c73 56 136 107 217 178 66 57 81 71 220 199 55 51 117 108 139 127 22 19 61 56 88 81 49 46 70 65 223 204 221 199 541 514 666 654 41 46 84 93 95 105 11 12 33 39 50 61 16 22 39 49 50 61 11 11 31 37 45 57 14 20 28 37 33 37 4 0 7 7 7 15 0 8 5 15 10 15 6 0 10 6 10 14 0 7 8 20 17 27 20 17 123 175 123 189 0 5 5 10 10 10 6 0 10 4 10 10 0 5 15 33 33 62 18 29 51 89 72 133 22 44 43 82 47 83 4 2 8 15 8 28 0 13 5 24 10 24 6 0 10 7 10 15 0 13 36 100 61 147 5 10 9 29 9 42 0 14 5 28 10 31 6 3 10 16 10 29 0 12 3 26 6 29 12 12 43 112 44 139 0 15 5 30 10 33 6 3 10 22 10 41 0 19 4 42 9 52 5 9 15 53 22 97 7 44 16 105 21 135 21 123 31 489 19 684 -13 236 -28 423 -37 456 -3 14 -10 84 -15 155 -6 72 -13 163 -16 204 -3 41 -11 80 -17 85 -6 6 -45 40 -86 76 -41 35 -82 73 -91 82 -9 10 -20 18 -23 18 -4 0 -14 6 -21 13 -17 14 -18 15 -116 90 -42 31 -81 57 -88 57 -6 0 -11 5 -11 10 0 6 -5 10 -11 10 -6 0 -33 16 -59 35 -26 19 -53 35 -59 35 -6 0 -11 3 -11 8 0 4 -10 12 -23 18 -38 18 -132 69 -137 74 -18 18 -257 133 -380 182 -29 12 -75 31 -110 46 -39 17 -203 74 -228 79 -12 3 -25 9 -28 14 -3 5 -18 9 -34 9 -16 0 -32 5 -35 10 -3 6 -15 10 -26 10 -23 0 -115 27 -141 41 -10 5 -31 9 -47 9 -17 0 -33 5 -36 10 -3 6 -20 10 -37 10 -18 0 -45 4 -62 9 -96 29 -145 41 -167 41 -14 0 -29 4 -34 9 -19 18 -371 37 -395 21z m375 -269 c39 -5 90 -14 115 -20 25 -5 68 -15 95 -21 28 -6 58 -15 67 -20 10 -6 31 -10 48 -10 17 0 38 -4 48 -9 9 -5 37 -15 62 -21 65 -18 132 -40 152 -51 10 -5 27 -9 38 -9 11 0 20 -4 20 -10 0 -5 11 -10 24 -10 14 0 28 -4 31 -10 3 -5 13 -10 20 -10 8 0 40 -12 72 -26 32 -14 67 -30 78 -34 80 -33 147 -64 265 -124 74 -37 150 -76 168 -84 17 -9 32 -20 32 -24 0 -4 9 -8 20 -8 11 0 20 -4 20 -10 0 -5 5 -10 10 -10 6 0 36 -16 66 -35 30 -19 57 -35 59 -35 9 0 90 -54 93 -62 2 -5 8 -8 14 -8 6 0 38 -19 72 -42 33 -24 73 -49 89 -57 15 -8 27 -18 27 -23 0 -4 5 -8 12 -8 20 0 79 -51 91 -78 7 -16 14 -113 18 -237 4 -115 13 -284 20 -375 15 -196 16 -634 1 -775 -11 -105 -21 -168 -48 -275 -8 -36 -18 -80 -21 -98 -3 -18 -9 -35 -14 -38 -5 -3 -9 -15 -9 -26 0 -23 -44 -161 -60 -190 -6 -10 -10 -25 -10 -33 0 -8 -4 -15 -10 -15 -5 0 -10 -9 -10 -19 0 -11 -11 -41 -25 -67 -14 -26 -25 -53 -25 -60 0 -8 -4 -14 -10 -14 -5 0 -10 -7 -10 -15 0 -16 -28 -68 -146 -272 -11 -18 -22 -33 -26 -33 -5 0 -8 -4 -8 -10 0 -14 -136 -207 -170 -240 -3 -3 -18 -23 -35 -45 -16 -22 -31 -42 -34 -45 -4 -3 -28 -32 -56 -65 -27 -33 -54 -65 -60 -71 -209 -228 -434 -457 -610 -619 -60 -55 -122 -114 -139 -131 -17 -17 -80 -75 -141 -130 -60 -54 -124 -112 -141 -129 -16 -16 -73 -68 -125 -115 -51 -47 -110 -100 -130 -118 -87 -79 -149 -111 -161 -84 -3 6 -52 51 -109 97 -73 60 -226 191 -239 205 -8 9 -49 45 -90 81 -41 35 -96 84 -122 109 -25 25 -108 104 -184 175 -195 184 -362 351 -489 490 -60 66 -117 127 -125 135 -9 8 -40 44 -69 79 -29 35 -58 70 -64 77 -17 17 -38 44 -72 89 -16 22 -32 42 -35 45 -20 20 -80 100 -80 107 0 5 -8 18 -18 29 -44 48 -162 243 -232 384 -12 25 -26 53 -31 62 -5 10 -9 25 -9 33 0 8 -4 15 -8 15 -4 0 -16 26 -27 58 -10 31 -22 61 -27 66 -4 6 -8 20 -8 32 0 13 -4 25 -9 28 -5 3 -11 18 -14 33 -3 16 -13 53 -22 83 -19 62 -32 119 -45 200 -5 30 -14 80 -19 110 -19 103 -31 225 -41 425 -11 227 -8 294 42 840 5 55 12 137 16 182 7 80 8 83 47 116 57 47 201 147 213 147 6 0 12 4 14 8 7 19 214 142 418 250 132 70 158 82 175 82 8 0 15 5 15 10 0 6 6 10 12 10 7 0 38 12 68 26 30 15 64 30 75 34 28 10 66 25 95 38 65 29 104 42 121 42 11 0 19 5 19 10 0 6 13 10 28 10 16 0 32 3 36 7 12 12 100 43 123 43 12 0 25 5 28 10 3 6 19 10 35 10 16 0 32 5 35 10 3 6 19 10 36 10 16 0 37 4 47 10 32 17 184 48 300 59 46 5 86 12 90 16 9 9 300 -1 387 -14z" fill="#f04771"/>
<path d="M2978 5296 c-42 -6 -80 -14 -84 -18 -4 -5 -19 -8 -34 -8 -14 0 -44 -8 -66 -19 -21 -10 -57 -27 -79 -37 -22 -10 -44 -22 -50 -26 -5 -5 -35 -25 -65 -45 -30 -20 -77 -57 -104 -82 -51 -48 -136 -155 -136 -170 0 -5 -6 -16 -12 -23 -30 -31 -67 -134 -90 -248 -26 -128 -7 -328 42 -455 13 -33 69 -148 88 -182 34 -57 121 -158 173 -198 28 -22 58 -46 65 -53 23 -22 144 -82 164 -82 10 0 22 -4 25 -10 3 -5 19 -10 35 -10 16 0 32 -4 35 -10 3 -5 30 -10 59 -10 88 0 87 1 84 -200 l-3 -175 -70 0 c-38 1 -130 5 -204 10 l-133 8 7 -94 c4 -52 12 -97 17 -100 10 -6 223 -19 324 -19 l61 0 7 -46 c3 -26 6 -93 6 -149 l0 -103 33 -7 c17 -4 60 -9 95 -12 l62 -5 0 154 c0 106 4 158 12 166 8 8 64 12 178 13 91 1 179 4 195 8 l30 6 3 93 3 92 -115 0 c-63 0 -150 -5 -192 -11 -75 -12 -78 -11 -96 11 -16 19 -18 42 -18 169 0 176 2 182 86 193 100 13 134 20 140 29 3 5 14 9 25 9 11 0 36 10 57 23 20 12 49 28 63 36 14 7 38 22 52 34 14 12 38 31 52 42 15 11 30 22 34 25 3 3 28 32 56 65 27 33 53 62 57 63 5 2 8 8 8 13 0 5 16 33 35 63 19 30 35 61 35 69 0 7 4 17 8 23 5 5 14 29 21 54 7 25 17 59 23 75 16 46 22 301 8 365 -6 30 -13 69 -16 85 -6 33 -9 42 -48 129 -57 125 -182 271 -284 331 -18 11 -32 23 -32 27 0 4 -9 8 -19 8 -11 0 -21 4 -23 8 -4 10 -115 62 -133 62 -7 0 -16 4 -19 9 -6 10 -21 13 -151 35 -103 17 -177 18 -287 2z m310 -205 c9 -5 37 -15 62 -22 25 -7 52 -18 60 -24 8 -6 36 -22 62 -34 45 -23 218 -178 218 -196 0 -4 11 -23 25 -41 14 -18 25 -39 25 -48 0 -8 5 -18 10 -21 6 -3 10 -15 10 -26 0 -10 5 -19 10 -19 6 0 10 -17 10 -38 0 -21 5 -43 11 -49 18 -18 3 -249 -20 -308 -5 -11 -14 -38 -21 -60 -14 -45 -66 -129 -117 -192 -68 -82 -241 -193 -304 -193 -15 0 -31 -4 -34 -10 -4 -6 -61 -10 -137 -10 -73 0 -147 5 -165 10 -18 6 -50 15 -70 21 -95 26 -216 96 -288 165 -45 44 -104 124 -124 169 -7 17 -17 38 -22 47 -5 10 -9 28 -9 41 0 13 -4 27 -10 33 -15 15 -32 162 -25 219 4 28 13 75 21 105 19 66 82 200 95 200 5 0 9 6 9 13 0 16 118 135 142 142 10 4 18 10 18 15 0 11 182 100 206 100 10 0 26 5 34 10 19 12 294 13 318 1z" fill="#f04771"/>
<path d="M1432 3835 c-21 -33 -30 -57 -61 -160 -12 -39 -11 -181 4 -444 4 -68 3 -107 -4 -114 -6 -6 -11 -19 -11 -29 0 -9 -12 -39 -27 -65 -59 -107 -66 -119 -79 -138 -8 -11 -14 -27 -14 -36 0 -28 35 -59 68 -59 17 0 34 -4 37 -10 3 -5 16 -10 28 -10 28 -1 61 -45 54 -73 -3 -12 -11 -37 -18 -55 -13 -32 -13 -35 14 -58 15 -13 39 -24 52 -24 26 0 53 -34 35 -45 -14 -9 -13 -78 2 -93 7 -7 21 -12 32 -12 41 -1 86 -59 86 -110 0 -17 4 -38 9 -48 5 -9 12 -25 15 -34 8 -26 52 -50 93 -50 58 0 100 12 167 47 160 85 202 108 210 116 6 5 18 9 27 9 10 0 19 5 21 10 4 14 149 15 174 2 10 -6 37 -18 59 -28 100 -43 184 -86 230 -119 53 -37 165 -144 165 -156 0 -4 6 -14 13 -21 22 -23 64 -82 88 -123 46 -82 109 -208 109 -220 0 -7 -28 -27 -62 -45 -68 -35 -175 -138 -184 -177 -4 -13 -10 -23 -15 -23 -5 0 -9 -15 -9 -34 0 -19 -4 -38 -10 -41 -6 -4 -10 -57 -10 -125 0 -68 4 -121 10 -125 6 -3 10 -17 10 -31 0 -13 4 -32 8 -42 20 -41 39 -79 53 -102 16 -29 120 -139 132 -140 4 0 25 -11 47 -25 22 -14 53 -25 69 -25 16 0 33 -4 36 -10 8 -13 142 -13 150 0 3 6 21 10 39 10 52 0 161 62 219 125 28 31 86 142 106 206 14 44 15 255 1 264 -5 3 -10 16 -10 28 0 71 -120 221 -215 268 -39 20 -51 31 -53 52 -2 15 1 27 7 27 6 0 11 9 11 19 0 11 5 23 10 26 6 3 10 13 10 22 0 8 15 36 33 62 18 25 42 63 52 84 11 21 27 46 35 55 9 9 26 33 40 52 30 45 150 160 166 160 7 0 14 3 16 8 6 13 87 62 103 62 8 0 15 5 15 10 0 6 7 10 14 10 8 0 36 11 62 25 26 14 54 25 63 25 10 0 22 5 28 11 14 14 152 14 166 0 6 -6 17 -11 24 -11 8 0 37 -15 66 -33 29 -18 66 -39 82 -47 17 -8 47 -25 67 -37 21 -13 44 -23 53 -23 8 0 15 -4 15 -10 0 -5 14 -10 30 -10 17 0 39 -5 49 -12 21 -13 103 5 119 26 12 15 42 111 42 134 0 27 56 82 83 82 13 0 28 5 35 12 15 15 15 63 0 87 -15 24 4 51 36 51 12 0 32 7 45 16 19 14 22 22 17 50 -3 19 -9 50 -12 69 -7 42 16 75 52 75 13 0 26 5 29 10 3 6 18 10 33 10 37 1 62 22 62 53 0 23 -25 80 -50 112 -22 29 -60 108 -60 125 0 10 -5 20 -12 22 -16 6 -15 206 1 245 8 20 11 72 8 164 -5 164 -12 195 -70 318 l-21 43 -13 -73 c-18 -107 -45 -223 -55 -233 -4 -6 -8 -18 -8 -28 0 -10 -4 -26 -9 -36 -5 -9 -19 -37 -30 -62 -52 -113 -108 -190 -210 -288 -113 -109 -192 -159 -486 -308 -82 -41 -168 -86 -190 -100 -22 -14 -48 -27 -57 -31 -10 -3 -18 -9 -18 -14 0 -5 -5 -9 -11 -9 -12 0 -220 -136 -259 -170 -14 -12 -35 -30 -48 -41 -12 -10 -24 -19 -27 -19 -3 0 -39 -34 -80 -75 -73 -74 -120 -135 -141 -185 -6 -14 -19 -42 -28 -63 -9 -21 -16 -44 -16 -52 0 -8 -9 -19 -20 -25 -17 -9 -22 -7 -31 17 -6 15 -15 36 -20 45 -5 10 -9 27 -9 37 0 11 -4 23 -10 26 -5 3 -10 15 -10 26 0 10 -4 19 -10 19 -5 0 -10 6 -10 13 -1 27 -168 200 -255 262 -16 11 -33 25 -40 30 -6 6 -18 15 -26 20 -71 45 -104 69 -107 76 -2 5 -8 9 -13 9 -9 0 -87 47 -99 60 -3 3 -31 18 -62 35 -32 16 -58 33 -58 37 0 4 -9 8 -19 8 -11 0 -21 3 -23 8 -1 4 -88 50 -193 102 -104 52 -199 103 -209 112 -11 10 -23 18 -27 18 -4 0 -14 6 -21 13 -7 6 -31 25 -53 42 -22 16 -49 39 -61 50 -12 11 -34 32 -50 46 -31 28 -43 42 -89 104 -16 22 -32 42 -35 45 -7 7 -36 59 -61 111 -12 24 -25 52 -30 61 -5 10 -9 27 -9 37 0 11 -4 22 -9 25 -12 8 -56 207 -63 288 l-3 27 -23 -34z m1652 -2401 c9 -3 16 -15 16 -26 0 -24 30 -120 41 -132 5 -6 9 -18 9 -28 0 -23 19 -23 26 0 3 9 9 24 13 32 5 8 17 48 27 88 18 69 20 73 43 67 42 -11 80 -45 111 -98 24 -43 30 -64 30 -115 0 -88 -39 -155 -122 -208 -31 -20 -51 -24 -111 -24 -45 0 -86 6 -103 15 -44 21 -90 74 -113 128 -21 49 -28 141 -12 151 4 3 11 18 14 33 10 46 63 103 114 122 1 1 8 -2 17 -5z" fill="#f04771"/>
</g>
</svg>